<?xml version="1.0" encoding="UTF-8" standalone="no"?><svg xmlns="http://www.w3.org/2000/svg" xmlns:xlink="http://www.w3.org/1999/xlink" contentScriptType="application/ecmascript" contentStyleType="text/css" height="552px" preserveAspectRatio="none" style="width:473px;height:552px;background:#FFFFFF;" version="1.1" viewBox="0 0 473 552" width="473px" zoomAndPan="magnify"><defs><filter height="300%" id="f1csgczz17ikd0" width="300%" x="-1" y="-1"><feGaussianBlur result="blurOut" stdDeviation="2.0"/><feColorMatrix in="blurOut" result="blurOut2" type="matrix" values="0 0 0 0 0 0 0 0 0 0 0 0 0 0 0 0 0 0 .4 0"/><feOffset dx="4.0" dy="4.0" in="blurOut2" result="blurOut3"/><feBlend in="SourceGraphic" in2="blurOut3" mode="normal"/></filter></defs><g><!--MD5=[b6dcce5e5ef3c84b0b048d11301373dd]
class Game--><rect codeLine="1" fill="#FEFECE" filter="url(#f1csgczz17ikd0)" height="78.3828" id="Game" style="stroke:#A80036;stroke-width:1.5;" width="123" x="149.5" y="7"/><text fill="#000000" font-family="sans-serif" font-size="12" lengthAdjust="spacing" textLength="35" x="193.5" y="23.1387">Game</text><line style="stroke:#A80036;stroke-width:1.5;" x1="150.5" x2="271.5" y1="30.9688" y2="30.9688"/><rect fill="none" height="6" style="stroke:#C82930;stroke-width:1.0;" width="6" x="157.5" y="38.9688"/><text fill="#000000" font-family="sans-serif" font-size="11" lengthAdjust="spacing" textLength="72" x="169.5" y="45.1792">whitePlayer_</text><rect fill="none" height="6" style="stroke:#C82930;stroke-width:1.0;" width="6" x="157.5" y="51.7734"/><text fill="#000000" font-family="sans-serif" font-size="11" lengthAdjust="spacing" textLength="70" x="169.5" y="57.9839">blackPlayer_</text><line style="stroke:#A80036;stroke-width:1.5;" x1="150.5" x2="271.5" y1="64.5781" y2="64.5781"/><ellipse cx="160.5" cy="75.5781" fill="#84BE84" rx="3" ry="3" style="stroke:#038048;stroke-width:1.0;"/><text fill="#000000" font-family="sans-serif" font-size="11" lengthAdjust="spacing" textLength="97" x="169.5" y="78.7886">Board getBoard()</text><!--MD5=[9563755d011c5cec7ec66dc53565a59e]
class Board--><rect codeLine="7" fill="#FEFECE" filter="url(#f1csgczz17ikd0)" height="116.7969" id="Board" style="stroke:#A80036;stroke-width:1.5;" width="128" x="147" y="145"/><text fill="#000000" font-family="sans-serif" font-size="12" lengthAdjust="spacing" textLength="36" x="193" y="161.1387">Board</text><line style="stroke:#A80036;stroke-width:1.5;" x1="148" x2="274" y1="168.9688" y2="168.9688"/><rect fill="none" height="6" style="stroke:#C82930;stroke-width:1.0;" width="6" x="155" y="176.9688"/><text fill="#000000" font-family="sans-serif" font-size="11" lengthAdjust="spacing" textLength="87" x="167" y="183.1792">std::list pieces_</text><rect fill="none" height="6" style="stroke:#C82930;stroke-width:1.0;" width="6" x="155" y="189.7734"/><text fill="#000000" font-family="sans-serif" font-size="11" lengthAdjust="spacing" textLength="92" x="167" y="195.9839">PieceColor turn_</text><rect fill="none" height="6" style="stroke:#C82930;stroke-width:1.0;" width="6" x="155" y="202.5781"/><text fill="#000000" font-family="sans-serif" font-size="11" lengthAdjust="spacing" textLength="79" x="167" y="208.7886">bool finished_</text><line style="stroke:#A80036;stroke-width:1.5;" x1="148" x2="274" y1="215.3828" y2="215.3828"/><ellipse cx="158" cy="226.3828" fill="#84BE84" rx="3" ry="3" style="stroke:#038048;stroke-width:1.0;"/><text fill="#000000" font-family="sans-serif" font-size="11" lengthAdjust="spacing" textLength="86" x="167" y="229.5933">move(Pos, Pos)</text><ellipse cx="158" cy="239.1875" fill="#84BE84" rx="3" ry="3" style="stroke:#038048;stroke-width:1.0;"/><text fill="#000000" font-family="sans-serif" font-size="11" lengthAdjust="spacing" textLength="102" x="167" y="242.3979">split(Pos, Pos, Pos)</text><ellipse cx="158" cy="251.9922" fill="#84BE84" rx="3" ry="3" style="stroke:#038048;stroke-width:1.0;"/><text fill="#000000" font-family="sans-serif" font-size="11" lengthAdjust="spacing" textLength="91" x="167" y="255.2026">merge(Pos, Pos)</text><!--MD5=[e05bacf3ff4416a0580578814d41bbf6]
class Piece--><rect codeLine="16" fill="#FEFECE" filter="url(#f1csgczz17ikd0)" height="116.7969" id="Piece" style="stroke:#A80036;stroke-width:1.5;" width="164" x="129" y="322"/><text fill="#000000" font-family="sans-serif" font-size="12" lengthAdjust="spacing" textLength="32" x="195" y="338.1387">Piece</text><line style="stroke:#A80036;stroke-width:1.5;" x1="130" x2="292" y1="345.9688" y2="345.9688"/><rect fill="none" height="6" style="stroke:#C82930;stroke-width:1.0;" width="6" x="137" y="353.9688"/><text fill="#000000" font-family="sans-serif" font-size="11" lengthAdjust="spacing" textLength="97" x="149" y="360.1792">PieceColor color_</text><rect fill="none" height="6" style="stroke:#C82930;stroke-width:1.0;" width="6" x="137" y="366.7734"/><text fill="#000000" font-family="sans-serif" font-size="11" lengthAdjust="spacing" textLength="97" x="149" y="372.9839">Position position_</text><rect fill="none" height="6" style="stroke:#C82930;stroke-width:1.0;" width="6" x="137" y="379.5781"/><text fill="#000000" font-family="sans-serif" font-size="11" lengthAdjust="spacing" textLength="94" x="149" y="385.7886">float probability_</text><line style="stroke:#A80036;stroke-width:1.5;" x1="130" x2="292" y1="392.3828" y2="392.3828"/><ellipse cx="140" cy="403.3828" fill="#84BE84" rx="3" ry="3" style="stroke:#038048;stroke-width:1.0;"/><text fill="#000000" font-family="sans-serif" font-size="11" lengthAdjust="spacing" textLength="110" x="149" y="406.5933">getPossibleMoves()</text><polygon fill="#FFFF44" points="140,411.1875,144,415.1875,140,419.1875,136,415.1875" style="stroke:#B38D22;stroke-width:1.0;"/><text fill="#000000" font-family="sans-serif" font-size="11" font-style="italic" lengthAdjust="spacing" textLength="138" x="149" y="419.3979">getVectorBeamMoves_()</text><polygon fill="#FFFF44" points="140,423.9922,144,427.9922,140,431.9922,136,427.9922" style="stroke:#B38D22;stroke-width:1.0;"/><text fill="#000000" font-family="sans-serif" font-size="11" font-style="italic" lengthAdjust="spacing" textLength="130" x="149" y="432.2026">getVectorStepMoves_()</text><!--MD5=[a64a835c3d62471a77f615251fdde58a]
class Position--><rect codeLine="25" fill="#FEFECE" filter="url(#f1csgczz17ikd0)" height="65.5781" id="Position" style="stroke:#A80036;stroke-width:1.5;" width="131" x="328.5" y="347.5"/><text fill="#000000" font-family="sans-serif" font-size="12" lengthAdjust="spacing" textLength="46" x="371" y="363.6387">Position</text><line style="stroke:#A80036;stroke-width:1.5;" x1="329.5" x2="458.5" y1="371.4688" y2="371.4688"/><line style="stroke:#A80036;stroke-width:1.5;" x1="329.5" x2="458.5" y1="379.4688" y2="379.4688"/><ellipse cx="339.5" cy="390.4688" fill="#84BE84" rx="3" ry="3" style="stroke:#038048;stroke-width:1.0;"/><text fill="#000000" font-family="sans-serif" font-size="11" lengthAdjust="spacing" textLength="86" x="348.5" y="393.6792">Position(int, int)</text><ellipse cx="339.5" cy="403.2734" fill="#84BE84" rx="3" ry="3" style="stroke:#038048;stroke-width:1.0;"/><text fill="#000000" font-family="sans-serif" font-size="11" lengthAdjust="spacing" textLength="105" x="348.5" y="406.4839">Position(std::string)</text><!--MD5=[ddd857b091b3d706f808d0b0f36fbc52]
class PieceColor--><rect codeLine="30" fill="#FEFECE" filter="url(#f1csgczz17ikd0)" height="65.5781" id="PieceColor" style="stroke:#A80036;stroke-width:1.5;" width="70" x="24" y="347.5"/><text fill="#000000" font-family="sans-serif" font-size="12" lengthAdjust="spacing" textLength="64" x="27" y="363.6387">PieceColor</text><line style="stroke:#A80036;stroke-width:1.5;" x1="25" x2="93" y1="371.4688" y2="371.4688"/><ellipse cx="35" cy="382.4688" rx="3" ry="3" style="stroke:#038048;stroke-width:1.0;fill:none;"/><text fill="#000000" font-family="sans-serif" font-size="11" lengthAdjust="spacing" textLength="37" x="44" y="385.6792">BLACK</text><ellipse cx="35" cy="395.2734" rx="3" ry="3" style="stroke:#038048;stroke-width:1.0;fill:none;"/><text fill="#000000" font-family="sans-serif" font-size="11" lengthAdjust="spacing" textLength="36" x="44" y="398.4839">WHITE</text><line style="stroke:#A80036;stroke-width:1.5;" x1="25" x2="93" y1="405.0781" y2="405.0781"/><!--MD5=[76412a1b87b0f1c748604a3142aab9ae]
class King--><rect codeLine="35" fill="#FEFECE" filter="url(#f1csgczz17ikd0)" height="39.9688" id="King" style="stroke:#A80036;stroke-width:1.5;" width="32" x="7" y="499"/><text fill="#000000" font-family="sans-serif" font-size="12" lengthAdjust="spacing" textLength="26" x="10" y="515.1387">King</text><line style="stroke:#A80036;stroke-width:1.5;" x1="8" x2="38" y1="522.9688" y2="522.9688"/><line style="stroke:#A80036;stroke-width:1.5;" x1="8" x2="38" y1="530.9688" y2="530.9688"/><!--MD5=[b5524c1f1cf4f7aeecdc9b5af5b05d87]
class Queen--><rect codeLine="36" fill="#FEFECE" filter="url(#f1csgczz17ikd0)" height="39.9688" id="Queen" style="stroke:#A80036;stroke-width:1.5;" width="46" x="74" y="499"/><text fill="#000000" font-family="sans-serif" font-size="12" lengthAdjust="spacing" textLength="40" x="77" y="515.1387">Queen</text><line style="stroke:#A80036;stroke-width:1.5;" x1="75" x2="119" y1="522.9688" y2="522.9688"/><line style="stroke:#A80036;stroke-width:1.5;" x1="75" x2="119" y1="530.9688" y2="530.9688"/><!--MD5=[6bd8cd731001ea389c78559e5d225136]
class Rook--><rect codeLine="37" fill="#FEFECE" filter="url(#f1csgczz17ikd0)" height="39.9688" id="Rook" style="stroke:#A80036;stroke-width:1.5;" width="36" x="155" y="499"/><text fill="#000000" font-family="sans-serif" font-size="12" lengthAdjust="spacing" textLength="30" x="158" y="515.1387">Rook</text><line style="stroke:#A80036;stroke-width:1.5;" x1="156" x2="190" y1="522.9688" y2="522.9688"/><line style="stroke:#A80036;stroke-width:1.5;" x1="156" x2="190" y1="530.9688" y2="530.9688"/><!--MD5=[449cd079d44679d193659f94873ba755]
class Bishop--><rect codeLine="38" fill="#FEFECE" filter="url(#f1csgczz17ikd0)" height="39.9688" id="Bishop" style="stroke:#A80036;stroke-width:1.5;" width="47" x="226.5" y="499"/><text fill="#000000" font-family="sans-serif" font-size="12" lengthAdjust="spacing" textLength="41" x="229.5" y="515.1387">Bishop</text><line style="stroke:#A80036;stroke-width:1.5;" x1="227.5" x2="272.5" y1="522.9688" y2="522.9688"/><line style="stroke:#A80036;stroke-width:1.5;" x1="227.5" x2="272.5" y1="530.9688" y2="530.9688"/><!--MD5=[f12c1f668f765232aff110b8f6a6681d]
class Knight--><rect codeLine="39" fill="#FEFECE" filter="url(#f1csgczz17ikd0)" height="39.9688" id="Knight" style="stroke:#A80036;stroke-width:1.5;" width="43" x="308.5" y="499"/><text fill="#000000" font-family="sans-serif" font-size="12" lengthAdjust="spacing" textLength="37" x="311.5" y="515.1387">Knight</text><line style="stroke:#A80036;stroke-width:1.5;" x1="309.5" x2="350.5" y1="522.9688" y2="522.9688"/><line style="stroke:#A80036;stroke-width:1.5;" x1="309.5" x2="350.5" y1="530.9688" y2="530.9688"/><!--MD5=[af29ca247b3a3642f0fb478cea99ef78]
class Pawn--><rect codeLine="40" fill="#FEFECE" filter="url(#f1csgczz17ikd0)" height="39.9688" id="Pawn" style="stroke:#A80036;stroke-width:1.5;" width="36" x="387" y="499"/><text fill="#000000" font-family="sans-serif" font-size="12" lengthAdjust="spacing" textLength="30" x="390" y="515.1387">Pawn</text><line style="stroke:#A80036;stroke-width:1.5;" x1="388" x2="422" y1="522.9688" y2="522.9688"/><line style="stroke:#A80036;stroke-width:1.5;" x1="388" x2="422" y1="530.9688" y2="530.9688"/><!--MD5=[9fa21af85290b4f921ebc4dd17726164]
reverse link Piece to King--><path d="M115.261,451.0124 C85.8636,472.357 56.6928,493.5369 39.2552,506.1977 " fill="none" id="Piece-backto-King" style="stroke:#A80036;stroke-width:1.0;"/><polygon fill="none" points="111.247,445.2767,131.544,439.1904,119.472,456.6055,111.247,445.2767" style="stroke:#A80036;stroke-width:1.0;"/><!--MD5=[88f2e2291555f21143e81e756510c9ea]
reverse link Piece to Queen--><path d="M149.678,454.9245 C136.145,471.1293 122.938,486.9429 113.133,498.6827 " fill="none" id="Piece-backto-Queen" style="stroke:#A80036;stroke-width:1.0;"/><polygon fill="none" points="144.461,450.2518,162.654,439.3883,155.206,459.226,144.461,450.2518" style="stroke:#A80036;stroke-width:1.0;"/><!--MD5=[f155965888366d3428fedfbd66dbdc67]
reverse link Piece to Rook--><path d="M189.446,458.9239 C185.33,473.71 181.376,487.9111 178.378,498.6827 " fill="none" id="Piece-backto-Rook" style="stroke:#A80036;stroke-width:1.0;"/><polygon fill="none" points="182.777,456.7783,194.885,439.3883,196.264,460.533,182.777,456.7783" style="stroke:#A80036;stroke-width:1.0;"/><!--MD5=[3a653eda681fe0f42514424c6a5b352b]
reverse link Piece to Bishop--><path d="M233.121,458.9239 C237.346,473.71 241.403,487.9111 244.481,498.6827 " fill="none" id="Piece-backto-Bishop" style="stroke:#A80036;stroke-width:1.0;"/><polygon fill="none" points="226.303,460.5418,227.54,439.3883,239.765,456.6957,226.303,460.5418" style="stroke:#A80036;stroke-width:1.0;"/><!--MD5=[0bba69bd4d15d8b23c124755577550ff]
reverse link Piece to Knight--><path d="M274.793,454.6739 C288.996,470.9662 302.872,486.8823 313.159,498.6827 " fill="none" id="Piece-backto-Knight" style="stroke:#A80036;stroke-width:1.0;"/><polygon fill="none" points="269.333,459.0637,261.467,439.3883,279.886,449.8638,269.333,459.0637" style="stroke:#A80036;stroke-width:1.0;"/><!--MD5=[9f812a98cb9947e5b96a7c66f6bc972c]
reverse link Piece to Pawn--><path d="M309.402,450.7366 C339.034,471.5861 368.492,492.3127 386.711,505.1315 " fill="none" id="Piece-backto-Pawn" style="stroke:#A80036;stroke-width:1.0;"/><polygon fill="none" points="305.321,456.4242,292.992,439.1904,313.377,444.9744,305.321,456.4242" style="stroke:#A80036;stroke-width:1.0;"/><!--MD5=[15c8f9ca3aac13d865864b4eb5314ef1]
link Game to Board--><path codeLine="42" d="M211,85.04 C211,101.477 211,121.151 211,139.655 " fill="none" id="Game-to-Board" style="stroke:#A80036;stroke-width:1.0;"/><polygon fill="#A80036" points="211,144.839,215,135.839,211,139.839,207,135.839,211,144.839" style="stroke:#A80036;stroke-width:1.0;"/><!--MD5=[0a810b5c09181f50bb8c28d8cc6d44bf]
link Board to Piece--><path codeLine="43" d="M211,274.287 C211,274.287 211,297.763 211,308.682 " fill="none" id="Board-Piece" style="stroke:#A80036;stroke-width:1.0;"/><polygon fill="#A80036" points="211,321.774,215,312.774,211,316.774,207,312.774,211,321.774" style="stroke:#A80036;stroke-width:1.0;"/><line style="stroke:#A80036;stroke-width:1.0;" x1="211" x2="211" y1="316.774" y2="308.774"/><polygon fill="#A80036" points="211,262.287,207,268.287,211,274.287,215,268.287,211,262.287" style="stroke:#A80036;stroke-width:1.0;"/><text fill="#000000" font-family="sans-serif" font-size="13" lengthAdjust="spacing" textLength="7" x="203.5734" y="310.7901">*</text><!--MD5=[5c0da779fd9de9e4874fb907cf6e12db]
reverse link PieceColor to Piece--><path codeLine="44" d="M99.1858,380.5 C109.043,380.5 118.899,380.5 128.756,380.5 " fill="none" id="PieceColor-backto-Piece" style="stroke:#A80036;stroke-width:1.0;"/><polygon fill="#A80036" points="94.0312,380.5,103.0312,384.5,99.0312,380.5,103.0312,376.5,94.0312,380.5" style="stroke:#A80036;stroke-width:1.0;"/><!--MD5=[62ea41e95c4692cb948df2194eb6bb4a]
link Piece to Position--><path codeLine="45" d="M305.207,380.5 C305.207,380.5 312.279,380.5 315.245,380.5 " fill="none" id="Piece-Position" style="stroke:#A80036;stroke-width:1.0;"/><polygon fill="#A80036" points="328.248,380.5,319.248,376.5,323.248,380.5,319.248,384.5,328.248,380.5" style="stroke:#A80036;stroke-width:1.0;"/><line style="stroke:#A80036;stroke-width:1.0;" x1="323.248" x2="315.248" y1="380.5" y2="380.5"/><polygon fill="#A80036" points="293.207,380.5,299.207,384.5,305.207,380.5,299.207,376.5,293.207,380.5" style="stroke:#A80036;stroke-width:1.0;"/><!--MD5=[f4a4452bce9495671ac4201718a80885]
@startuml
class Game {
-whitePlayer_
-blackPlayer_
+Board getBoard()
}

class Board {
-std::list pieces_
-PieceColor turn_
-bool finished_
+move(Pos, Pos)
+split(Pos, Pos, Pos)
+merge(Pos, Pos)
}

class Piece {
-PieceColor color_
-Position position_
-float probability_
+getPossibleMoves()
{abstract} #getVectorBeamMoves_()
{abstract} #getVectorStepMoves_()
}

class Position {
+Position(int, int)
+Position(std::string)
}

enum PieceColor {
+BLACK
+WHITE
}

Class King extends Piece
Class Queen extends Piece
Class Rook extends Piece
Class Bishop extends Piece
Class Knight extends Piece
Class Pawn extends Piece

Game - -> Board
Board *- -> "*" Piece
PieceColor <- Piece
Piece *-> Position

hide circle
@enduml

PlantUML version 1.2021.13beta8(Unknown compile time)
(GPL source distribution)
Java Runtime: Java(TM) SE Runtime Environment
JVM: Java HotSpot(TM) 64-Bit Server VM
Default Encoding: UTF-8
Language: en
Country: US
--></g></svg>